PathFileType	4	(X/Y/Z)	C:/Users/opensim2020/Desktop/walking_exp_matlab/subject01_walking08_straight_04.trc	
DataRate	CameraRate	NumFrames	NumMarkers	Units	OrigDataRate	OrigDataStartFrame	OrigNumFrames	
100.00	100.00	4	43	mm	100.00	3691	256	
Frame#	Time	LFHD			RFHD			LBHD			RBHD			C7			T10			CLAV			STRN			RBAK			LSHO			LUPA			LELB			LFRM			LWRA			LWRB			LFIN			RSHO			RUPA			RELB			RFRM			RWRA			RWRB			RFIN			LASI			RASI			LPSI			RPSI			LTHI			LKNE			LTIB			LANK			LHEE			LTOE			RTHI			RKNE			RTIB			RANK			RHEE			RTOE			*39			*40			*41			*42			
		X1	Y1	Z1	X2	Y2	Z2	X3	Y3	Z3	X4	Y4	Z4	X5	Y5	Z5	X6	Y6	Z6	X7	Y7	Z7	X8	Y8	Z8	X9	Y9	Z9	X10	Y10	Z10	X11	Y11	Z11	X12	Y12	Z12	X13	Y13	Z13	X14	Y14	Z14	X15	Y15	Z15	X16	Y16	Z16	X17	Y17	Z17	X18	Y18	Z18	X19	Y19	Z19	X20	Y20	Z20	X21	Y21	Z21	X22	Y22	Z22	X23	Y23	Z23	X24	Y24	Z24	X25	Y25	Z25	X26	Y26	Z26	X27	Y27	Z27	X28	Y28	Z28	X29	Y29	Z29	X30	Y30	Z30	X31	Y31	Z31	X32	Y32	Z32	X33	Y33	Z33	X34	Y34	Z34	X35	Y35	Z35	X36	Y36	Z36	X37	Y37	Z37	X38	Y38	Z38	X39	Y39	Z39	X40	Y40	Z40	X41	Y41	Z41	X42	Y42	Z42	X43	Y43	Z43	

33	0.320	1571.20972	872.54700	1681.45850	1461.14929	845.57227	1689.84009	1547.97681	984.13605	1630.86877	1431.32910	960.28723	1638.70618	1502.50891	1011.90906	1441.15613	1480.38196	1043.27795	1148.53479	1510.74011	867.67346	1376.11890	1515.97681	822.29974	1221.72913	1414.87317	1057.69495	1247.64856	1667.65942	938.26837	1401.54126	1752.93835	952.58142	1216.81799	1761.05469	938.85547	1065.37634	1792.23010	869.34357	975.87427	1783.39978	755.32739	894.27649	1803.68408	807.37811	871.44049	1821.03613	740.21863	823.18640	1355.53162	919.87061	1407.14050	1247.29944	970.20129	1208.05737	1244.50220	971.39612	1082.95642	1213.54932	943.38708	966.28955	1234.40613	863.83594	849.43597	1192.47046	906.07220	850.73596	1197.40344	868.73865	772.81561	1596.27295	880.45038	939.04681	1380.74719	856.29700	950.90796	1521.93799	1059.43835	950.90210	1377.62805	1041.56042	956.04828	1634.04272	917.17413	605.53400	1613.04932	927.12671	471.54456	1613.89661	990.51141	290.99667	1553.34766	1025.45959	76.42078	1496.67517	1067.80273	48.71125	1563.57910	878.27350	37.77671	1311.30042	822.90900	626.84369	1333.95166	786.78558	471.62564	1326.68848	879.33691	321.05142	1370.25989	955.58008	127.57238	1424.26025	1007.91779	97.57341	1361.92969	833.65100	56.69416	1482.30518	861.95044	1722.37878	-3101.99731	1973.17188	1023.40936	-3140.66016	2012.55676	1022.06781			 
34	0.330	1571.81873	865.39130	1681.22607	1461.77600	838.69391	1689.45544	1548.89063	977.22394	1631.00903	1431.95313	953.30603	1638.67834	1503.50452	1005.49329	1441.08105	1481.36951	1037.24927	1148.51929	1511.46887	861.40521	1375.80774	1516.78674	816.15845	1221.43774	1416.03430	1051.63501	1247.60095	1668.55322	931.59247	1401.63452	1754.26721	945.72058	1217.18884	1762.86804	931.47339	1065.69849	1793.91553	860.47278	977.11035	1784.75806	745.21307	897.47876	1805.42859	796.76642	873.89392	1822.49304	728.76508	826.76965	1356.36536	913.72876	1406.86523	1248.34863	964.86639	1207.96594	1245.68848	966.55090	1082.89038	1214.46082	939.24200	966.13000	1235.24670	860.40277	848.62469	1193.40613	903.04694	850.54877	1197.87927	865.75818	772.19733	1597.18481	874.84119	938.88538	1381.59778	850.48254	950.91217	1522.73706	1053.63232	950.83075	1378.45142	1035.57495	955.99664	1634.58850	913.56268	605.40924	1613.77222	925.10400	471.42105	1614.19519	989.47784	291.16068	1553.47253	1025.31165	76.66029	1496.68311	1067.65564	49.26326	1563.60132	878.09863	37.69358	1311.87170	817.04034	626.95154	1334.76355	779.26959	472.23480	1327.74316	866.46692	318.82477	1371.67883	934.53259	122.11555	1425.86670	985.74786	90.37923	1363.38318	809.76404	55.61671	1482.90479	854.89429	1722.11438	-3102.00684	1973.08447	1023.30084	-3140.78198	2012.53003	1022.03754			 
35	0.340	1572.45605	858.32721	1680.96838	1462.22888	831.84424	1688.96851	1549.72095	970.31500	1631.12695	1432.72961	946.61676	1638.63354	1504.48022	999.11884	1440.99036	1482.25696	1031.19678	1148.45068	1512.28833	855.04376	1375.59656	1517.59863	809.94208	1221.16406	1417.49805	1046.49841	1247.81287	1669.30017	924.85059	1401.64551	1755.69043	938.86365	1217.57129	1764.55188	924.17059	1065.93542	1795.53162	851.77087	978.35522	1785.98608	735.22601	900.57758	1806.87256	786.33795	876.18451	1823.78491	717.46515	830.22809	1357.12219	907.55560	1406.61731	1249.30859	959.55640	1207.81213	1246.46936	961.63458	1082.82080	1215.22449	934.92267	965.88831	1235.83081	856.82117	848.03009	1194.06348	899.30585	849.95685	1198.43384	862.76923	771.71606	1597.94434	869.02380	938.47412	1382.34253	844.53015	950.74872	1523.46631	1047.78027	950.73895	1379.21899	1029.55042	955.94086	1635.03979	910.02075	605.26324	1614.49231	922.90094	471.33676	1614.63464	988.38818	291.43042	1553.51941	1025.11096	76.81849	1496.64722	1067.47961	49.81602	1563.63806	877.90808	37.64069	1312.19861	811.14093	626.95172	1335.70703	772.03632	472.78638	1328.84082	853.82831	316.56287	1373.04053	913.43640	117.12276	1426.97510	963.47412	83.45970	1364.72949	785.79816	55.29528	1483.44995	847.84552	1721.79834	-3101.85962	1973.17480	1023.48279	-3140.64502	2012.63220	1022.07172			 
36	0.350	1572.96777	851.19519	1680.67725	1462.67517	824.94897	1688.55554	1550.51953	963.42798	1631.15100	1433.42017	939.96460	1638.53271	1505.32947	992.70844	1440.88794	1483.03296	1025.09912	1148.37415	1512.81433	848.78168	1375.25659	1518.23938	803.82098	1220.70020	1418.05151	1039.47900	1247.37268	1670.03833	918.12830	1401.59729	1756.88049	931.89758	1217.77417	1766.09290	916.94336	1066.06018	1796.93286	843.18927	979.45081	1787.12476	725.49261	903.58203	1807.98254	776.10480	878.25934	1824.92188	706.43799	833.53809	1357.83911	901.45160	1406.35425	1250.19897	954.22028	1207.63977	1247.52100	956.65253	1082.65295	1216.05334	930.65741	965.61847	1236.40308	853.19977	847.38708	1194.81726	895.74237	849.59631	1198.84265	859.56787	771.15210	1598.68848	863.21271	938.12219	1383.01990	838.58691	950.63483	1524.11597	1041.91479	950.62329	1379.90271	1023.46552	955.83832	1635.59338	906.36017	605.21521	1615.20667	920.55402	471.22086	1615.05469	987.23340	291.68893	1553.79907	1025.09863	77.30816	1496.66956	1067.39233	50.41689	1563.71509	877.85114	37.59109	1312.64099	805.35547	626.73254	1336.66150	764.77203	473.10333	1329.72742	841.28625	314.20331	1374.29993	891.70770	112.52002	1428.19434	940.70172	77.09473	1365.66724	762.33997	55.46757	1483.84753	840.85815	1721.39783	-3101.97534	1973.13574	1023.51361	-3140.67651	2012.53357	1021.96533			 
